<?xml version="1.0" standalone="no"?><!-- Generator: Gravit.io --><svg xmlns="http://www.w3.org/2000/svg" xmlns:xlink="http://www.w3.org/1999/xlink" style="isolation:isolate" viewBox="507.5 208.5 311 311" width="311" height="311"><path d="M 524.08 213 L 801.92 213 C 808.587 213 814 218.413 814 225.08 L 814 502.92 C 814 509.587 808.587 515 801.92 515 L 524.08 515 C 517.413 515 512 509.587 512 502.92 L 512 225.08 C 512 218.413 517.413 213 524.08 213 Z" style="stroke:none;fill:#FFFFFF;stroke-miterlimit:10;"/><path d="M 524.08 213 L 801.92 213 C 808.587 213 814 218.413 814 225.08 L 814 502.92 C 814 509.587 808.587 515 801.92 515 L 524.08 515 C 517.413 515 512 509.587 512 502.92 L 512 225.08 C 512 218.413 517.413 213 524.08 213 Z" style="fill:none;stroke:#00D2FF;stroke-width:3;stroke-linecap:square;stroke-miterlimit:3;"/><path d=" M 634.5 364 C 634.5 348.27 647.27 335.5 663 335.5 C 678.73 335.5 691.5 348.27 691.5 364 C 691.5 379.73 678.73 392.5 663 392.5 C 647.27 392.5 634.5 379.73 634.5 364 Z " fill="rgb(0,210,255)"/></svg>