<?xml version="1.0" encoding="iso-8859-1"?>
<!-- Generator: Adobe Illustrator 16.0.0, SVG Export Plug-In . SVG Version: 6.00 Build 0)  -->
<!DOCTYPE svg PUBLIC "-//W3C//DTD SVG 1.1//EN" "http://www.w3.org/Graphics/SVG/1.1/DTD/svg11.dtd">
<svg version="1.1" id="Capa_1" xmlns="http://www.w3.org/2000/svg" xmlns:xlink="http://www.w3.org/1999/xlink" x="0px" y="0px"
	 width="269.215px" height="269.215px" viewBox="0 0 269.215 269.215" style="enable-background:new 0 0 269.215 269.215;"
	 xml:space="preserve">
<g>
	<g>
		<circle style="fill:#030303;" cx="42.13" cy="166.256" r="18.664"/>
		<path style="fill:#030303;" d="M42.13,206.242c10.31,0,18.667,8.354,18.667,18.67c0,10.304-8.357,18.664-18.667,18.664
			s-18.666-8.36-18.666-18.664C23.464,214.597,31.82,206.242,42.13,206.242z"/>
		<path style="fill:#030303;" d="M98.118,148.937c10.304,0,18.661,8.354,18.661,18.658c0,10.31-8.357,18.663-18.661,18.663
			c-10.307,0-18.661-8.354-18.661-18.663C79.457,157.291,87.812,148.937,98.118,148.937z"/>
		<path style="fill:#030303;" d="M98.118,207.575c10.304,0,18.661,8.359,18.661,18.663c0,10.305-8.357,18.664-18.661,18.664
			c-10.307,0-18.661-8.359-18.661-18.664C79.457,215.935,87.812,207.575,98.118,207.575z"/>
		<circle style="fill:#030303;" cx="172.375" cy="59.193" r="18.661"/>
		<circle style="fill:#030303;" cx="173.027" cy="100.96" r="18.661"/>
		<path style="fill:#030303;" d="M0,264.435h140.251v-136.36H0V264.435z M11.71,139.782h116.831v112.942H11.71V139.782z"/>
		<path style="fill:#030303;" d="M172.787,4.78l-99.168,99.164l19.187,19.182h49.916c1.36,0,2.47,1.112,2.47,2.479v49.921
			l24.851,24.834l99.173-99.159L172.787,4.78z M156.902,170.677v-11.962c3.407,3.613,8.199,5.89,13.552,5.89
			c10.31,0,18.663-8.354,18.663-18.67c0-10.304-8.354-18.663-18.663-18.663c-5.353,0-10.149,2.284-13.552,5.893v-7.56
			c0-7.822-6.364-14.189-14.181-14.189H97.655l-7.471-7.471l82.603-82.605l79.869,79.866l-82.614,82.599L156.902,170.677z"/>
	</g>
</g>
<g>
</g>
<g>
</g>
<g>
</g>
<g>
</g>
<g>
</g>
<g>
</g>
<g>
</g>
<g>
</g>
<g>
</g>
<g>
</g>
<g>
</g>
<g>
</g>
<g>
</g>
<g>
</g>
<g>
</g>
</svg>
