<?xml version="1.0" standalone="no"?><!-- Generator: Gravit.io --><svg xmlns="http://www.w3.org/2000/svg" xmlns:xlink="http://www.w3.org/1999/xlink" style="isolation:isolate" viewBox="507.5 208.5 311 311" width="311" height="311"><path d="M 524.08 213 L 801.92 213 C 808.587 213 814 218.413 814 225.08 L 814 502.92 C 814 509.587 808.587 515 801.92 515 L 524.08 515 C 517.413 515 512 509.587 512 502.92 L 512 225.08 C 512 218.413 517.413 213 524.08 213 Z" style="stroke:none;fill:#FFFFFF;stroke-miterlimit:10;"/><path d="M 524.08 213 L 801.92 213 C 808.587 213 814 218.413 814 225.08 L 814 502.92 C 814 509.587 808.587 515 801.92 515 L 524.08 515 C 517.413 515 512 509.587 512 502.92 L 512 225.08 C 512 218.413 517.413 213 524.08 213 Z" style="fill:none;stroke:#00D2FF;stroke-width:3;stroke-linecap:square;stroke-miterlimit:3;"/><path d=" M 569.5 287 C 569.5 271.27 582.27 258.5 598 258.5 C 613.73 258.5 626.5 271.27 626.5 287 C 626.5 302.73 613.73 315.5 598 315.5 C 582.27 315.5 569.5 302.73 569.5 287 Z " fill="rgb(0,210,255)"/><path d=" M 699.5 287 C 699.5 271.27 712.27 258.5 728 258.5 C 743.73 258.5 756.5 271.27 756.5 287 C 756.5 302.73 743.73 315.5 728 315.5 C 712.27 315.5 699.5 302.73 699.5 287 Z " fill="rgb(0,210,255)"/><path d=" M 569.5 364 C 569.5 348.27 582.27 335.5 598 335.5 C 613.73 335.5 626.5 348.27 626.5 364 C 626.5 379.73 613.73 392.5 598 392.5 C 582.27 392.5 569.5 379.73 569.5 364 Z " fill="rgb(0,210,255)"/><path d=" M 699.5 364 C 699.5 348.27 712.27 335.5 728 335.5 C 743.73 335.5 756.5 348.27 756.5 364 C 756.5 379.73 743.73 392.5 728 392.5 C 712.27 392.5 699.5 379.73 699.5 364 Z " fill="rgb(0,210,255)"/><path d=" M 569.5 441 C 569.5 425.27 582.27 412.5 598 412.5 C 613.73 412.5 626.5 425.27 626.5 441 C 626.5 456.73 613.73 469.5 598 469.5 C 582.27 469.5 569.5 456.73 569.5 441 Z " fill="rgb(0,210,255)"/><path d=" M 699.5 441 C 699.5 425.27 712.27 412.5 728 412.5 C 743.73 412.5 756.5 425.27 756.5 441 C 756.5 456.73 743.73 469.5 728 469.5 C 712.27 469.5 699.5 456.73 699.5 441 Z " fill="rgb(0,210,255)"/></svg>