<?xml version="1.0" encoding="iso-8859-1"?>
<!-- Generator: Adobe Illustrator 19.0.0, SVG Export Plug-In . SVG Version: 6.00 Build 0)  -->
<svg version="1.1" id="Capa_1" xmlns="http://www.w3.org/2000/svg" xmlns:xlink="http://www.w3.org/1999/xlink" x="0px" y="0px"
	 viewBox="0 0 512 512" style="enable-background:new 0 0 512 512;" xml:space="preserve">
<g>
	<g>
		<path d="M383.271,368.008l-52.344-17.448c-6.768-2.256-11.315-8.565-11.315-15.699V301.28c4.134-2.594,8.124-5.436,11.929-8.539
			c19.355-15.786,33.373-37.378,39.914-61.306h4.787c8.614,0,16.956-3.584,22.887-9.834c6.015-6.339,9.076-14.648,8.618-23.399
			c-0.381-7.278-3.325-13.869-7.972-18.998v-75.511C399.773,46.517,353.256,0,296.08,0h-87.985
			c-13.866,0-26.762,5.931-35.762,16.133c-33.452,1.826-60.108,29.612-60.108,63.512v99.243c-5.582,6.243-8.413,14.256-7.972,22.684
			c0.876,16.746,15.313,29.863,32.865,29.863h3.426c6.541,23.927,20.558,45.52,39.914,61.306c3.805,3.103,7.795,5.945,11.929,8.539
			v33.581c0,7.134-4.547,13.443-11.315,15.699l-52.344,17.448c-19.46,6.486-32.535,24.626-32.535,45.139V504.5
			c0,4.142,3.358,7.5,7.5,7.5c4.142,0,7.5-3.358,7.5-7.5v-91.354c0-3.244,0.497-6.394,1.396-9.386l27.827,27.827
			c7.668,7.668,11.891,17.863,11.891,28.706V504.5c0,4.142,3.358,7.5,7.5,7.5c4.142,0,7.5-3.358,7.5-7.5v-44.207
			c0-14.85-5.783-28.812-16.284-39.313l-30.579-30.579c3.547-3.638,7.97-6.478,13.028-8.163l16.942-5.647
			c9.645,18.011,23.732,33.285,41.012,44.373c19.26,12.358,41.59,18.891,64.574,18.891c21.045,0,41.747-5.539,59.865-16.02
			c3.585-2.074,4.811-6.662,2.737-10.247c-2.074-3.586-6.662-4.811-10.248-2.737c-15.839,9.162-33.943,14.004-52.354,14.004
			c-20.107,0-39.635-5.711-56.474-16.515c-14.397-9.238-26.267-21.789-34.655-36.568l16.577-5.526
			c15.938,25.744,44.055,41.544,74.551,41.544c30.588,0,58.629-15.77,74.565-41.54l16.551,5.517
			c-4.248,7.482-9.392,14.424-15.375,20.688c-2.861,2.995-2.752,7.742,0.243,10.604c1.453,1.388,3.317,2.077,5.18,2.077
			c1.977,0,3.951-0.777,5.424-2.32c7.52-7.872,13.892-16.677,19.004-26.222l16.937,5.646c5.058,1.686,9.481,4.525,13.028,8.163
			l-30.579,30.579c-10.501,10.501-16.284,24.462-16.284,39.313V504.5c0,4.142,3.358,7.5,7.5,7.5c4.142,0,7.5-3.358,7.5-7.5v-44.207
			c0-10.844,4.223-21.038,11.891-28.706l27.827-27.827c0.899,2.993,1.396,6.142,1.396,9.386V504.5c0,4.142,3.358,7.5,7.5,7.5
			c4.142,0,7.5-3.358,7.5-7.5v-91.354C415.806,392.634,402.731,374.494,383.271,368.008z M180.441,30.191
			C186.508,20.679,196.846,15,208.094,15h87.985c48.906,0,88.694,39.788,88.694,88.693v66.096c-3.126-0.939-6.448-1.451-9.893-1.451
			h-7.172v-24.564c0-4.143-3.358-7.5-7.5-7.5c-45.439,0-99.813-30.692-100.488-31.076c-3.595-2.055-8.178-0.806-10.233,2.791
			c-2.055,3.597-0.806,8.178,2.791,10.233c2.243,1.282,52.92,29.944,100.431,32.82v17.297h-16.831
			c-7.216-9.72-18.774-16.032-31.782-16.032c-14.839,0-27.789,8.216-34.559,20.333c-3.832-2.706-8.5-4.301-13.537-4.301
			s-9.706,1.596-13.537,4.301c-6.77-12.118-19.72-20.333-34.559-20.333c-13.008,0-24.566,6.312-31.782,16.032h-16.831v-32.581
			c0-17.034,13.143-31.047,29.819-32.455c13.085,14.312,29.63,27.331,49.521,38.934c3.576,2.087,8.169,0.879,10.257-2.699
			c2.087-3.578,0.878-8.17-2.7-10.257c-32.831-19.151-55.661-42.16-67.857-68.387C173.648,50.825,174.418,39.635,180.441,30.191z
			 M328.66,191.871c0,13.545-11.02,24.564-24.564,24.564s-24.564-11.02-24.564-24.564c0-13.544,11.02-24.564,24.564-24.564
			S328.66,178.326,328.66,191.871z M232.467,191.871c0,13.545-11.02,24.564-24.564,24.564c-13.544,0-24.564-11.02-24.564-24.564
			c0-13.544,11.02-24.564,24.564-24.564C221.447,167.307,232.467,178.326,232.467,191.871z M127.225,79.646
			c0-22.252,15.034-41.047,35.474-46.794c-3.686,11.189-3.063,23.417,2.029,34.367c3.69,7.935,8.233,15.583,13.602,22.934
			c-19.659,5.848-34.04,24.074-34.04,45.606v32.581h-8.532c-2.903,0-5.773,0.416-8.533,1.195V79.646z M255.999,392.79
			c-24.695,0-47.51-12.502-60.871-32.979c7.58-5.855,12.258-14.972,12.258-24.95v-25.602c15.21,6.758,31.788,10.354,48.613,10.354
			s33.403-3.597,48.613-10.354v25.602c0,9.979,4.679,19.098,12.261,24.953C303.518,380.308,280.768,392.79,255.999,392.79z
			 M255.999,304.613c-24.022,0-47.483-8.344-66.061-23.496c-18.318-14.94-31.17-35.816-36.19-58.783
			c-0.753-3.443-3.802-5.898-7.327-5.898h-9.303c-9.41,0-17.434-7.02-17.885-15.647c-0.241-4.601,1.364-8.966,4.519-12.29
			c3.158-3.327,7.421-5.159,12.006-5.159h33.517c-0.607,2.75-0.937,5.603-0.937,8.532c0,21.816,17.749,39.564,39.564,39.564
			s39.564-17.749,39.564-39.564c0-4.705,3.828-8.532,8.532-8.532c4.704,0,8.532,3.827,8.532,8.532
			c0,21.816,17.749,39.564,39.564,39.564s39.564-17.749,39.564-39.564c0-2.93-0.33-5.783-0.937-8.532h32.157
			c9.41,0,17.434,7.019,17.885,15.647c0.241,4.601-1.364,8.965-4.519,12.29c-3.158,3.327-7.421,5.16-12.006,5.16h-10.664
			c-3.525,0-6.574,2.455-7.327,5.898c-5.02,22.967-17.872,43.843-36.19,58.783C303.482,296.269,280.021,304.613,255.999,304.613z"/>
	</g>
</g>
<g>
	<g>
		<path d="M293.647,246.69c-2.766-3.084-7.507-3.342-10.591-0.576c-7.48,6.708-17.09,10.403-27.057,10.403
			c-9.968,0-19.577-3.695-27.057-10.403c-3.083-2.766-7.825-2.508-10.591,0.576c-2.766,3.083-2.508,7.826,0.576,10.591
			c10.236,9.18,23.402,14.236,37.072,14.236c13.669-0.001,26.835-5.057,37.072-14.236
			C296.154,254.516,296.413,249.774,293.647,246.69z"/>
	</g>
</g>
<g>
	<g>
		<path d="M207.902,181.565c-4.142,0-7.5,3.358-7.5,7.5v5.611c0,4.142,3.358,7.5,7.5,7.5c4.142,0,7.5-3.358,7.5-7.5v-5.611
			C215.402,184.923,212.044,181.565,207.902,181.565z"/>
	</g>
</g>
<g>
	<g>
		<path d="M304.096,181.564c-4.142,0-7.5,3.358-7.5,7.5v5.611c0,4.142,3.358,7.5,7.5,7.5c4.142,0,7.5-3.358,7.5-7.5v-5.611
			C311.596,184.922,308.238,181.564,304.096,181.564z"/>
	</g>
</g>
<g>
</g>
<g>
</g>
<g>
</g>
<g>
</g>
<g>
</g>
<g>
</g>
<g>
</g>
<g>
</g>
<g>
</g>
<g>
</g>
<g>
</g>
<g>
</g>
<g>
</g>
<g>
</g>
<g>
</g>
</svg>
