<?xml version="1.0" encoding="UTF-8" standalone="no"?>
<svg
   id="svg15556"
   version="1.1"
   height="69"
   width="223"
   sodipodi:docname="sj_logo_initals.svg"
   inkscape:version="1.3 (0e150ed, 2023-07-21)"
   xmlns:inkscape="http://www.inkscape.org/namespaces/inkscape"
   xmlns:sodipodi="http://sodipodi.sourceforge.net/DTD/sodipodi-0.dtd"
   xmlns="http://www.w3.org/2000/svg"
   xmlns:svg="http://www.w3.org/2000/svg"
   xmlns:rdf="http://www.w3.org/1999/02/22-rdf-syntax-ns#"
   xmlns:cc="http://creativecommons.org/ns#"
   xmlns:dc="http://purl.org/dc/elements/1.1/">
  <sodipodi:namedview
     pagecolor="#ffffff"
     bordercolor="#666666"
     borderopacity="1"
     objecttolerance="10"
     gridtolerance="10"
     guidetolerance="10"
     inkscape:pageopacity="0"
     inkscape:pageshadow="2"
     inkscape:window-width="1440"
     inkscape:window-height="791"
     id="namedview864"
     showgrid="false"
     inkscape:zoom="2.495"
     inkscape:cx="92.38477"
     inkscape:cy="50.901804"
     inkscape:window-x="0"
     inkscape:window-y="25"
     inkscape:window-maximized="1"
     inkscape:current-layer="svg15556"
     units="px"
     showguides="false"
     inkscape:showpageshadow="2"
     inkscape:pagecheckerboard="0"
     inkscape:deskcolor="#d1d1d1" />
  <metadata
     id="metadata15562">
    <rdf:RDF>
      <cc:Work
         rdf:about="">
        <dc:format>image/svg+xml</dc:format>
        <dc:type
           rdf:resource="http://purl.org/dc/dcmitype/StillImage" />
        <dc:title />
      </cc:Work>
    </rdf:RDF>
  </metadata>
  <defs
     id="defs15560" />
  <path
     id="path2510"
     d="M 19.922751,5.92774 35.650527,45.22052 36.788298,44.87686 21.281889,5.75954 Z"
     style="fill:#ffab4a;fill-opacity:1;stroke:none;stroke-width:0.37116781px;stroke-linecap:butt;stroke-linejoin:miter;stroke-opacity:1"
     inkscape:connector-curvature="0" />
  <path
     id="path2506"
     d="M 60.80906,17.20746 20.464874,4.70542 19.922751,5.92774 60.129734,18.6514 Z"
     style="fill:#ff4a4a;fill-opacity:1;stroke:none;stroke-width:0.37116781px;stroke-linecap:butt;stroke-linejoin:miter;stroke-opacity:1"
     inkscape:connector-curvature="0" />
  <rect
     transform="matrix(0.20207763,0.97936951,-0.82153623,0.57015631,0,0)"
     ry="0"
     y="-44.645679"
     x="38.473549"
     height="29.356087"
     width="1.2261525"
     id="rect15586-3"
     style="fill:#ff954a;fill-opacity:1;stroke:none;stroke-width:0.43339813;stroke-linejoin:bevel;stroke-miterlimit:4;stroke-dasharray:none;stroke-opacity:1" />
  <path
     id="path16064-5-6"
     d="m 36.788298,44.87686 24.020762,-27.6694 1.502179,1.17477 v 0 0 l -24.322072,27.164 z"
     style="fill:#ff4a4a;fill-opacity:1;stroke:none;stroke-width:0.70490777px;stroke-linecap:butt;stroke-linejoin:miter;stroke-opacity:1"
     inkscape:connector-curvature="0" />
  <path
     id="path16064-5"
     d="m 21.793929,32.03158 14.020674,13.2486 -0.649638,0.76607 v 0 L 33.15352,44.4665 20.607328,32.86736 21.615342,32.56511 Z"
     style="fill:#ff4a4a;fill-opacity:1;stroke:none;stroke-width:0.37116781px;stroke-linecap:butt;stroke-linejoin:miter;stroke-opacity:1"
     inkscape:connector-curvature="0" />
  <path
     id="path16064"
     d="m 6.2799379,39.16109 3.711678,-18.92956 8.5477081,8.99986 -1.141944,0.57613 -6.672312,-6.89168 -3.1047691,16.802 -0.793928,-0.69074 z"
     style="fill:#ff4a4a;fill-opacity:1;stroke:none;stroke-width:0.37116781px;stroke-linecap:butt;stroke-linejoin:miter;stroke-opacity:1"
     inkscape:connector-curvature="0" />
  <path
     id="path10076"
     d="M -4.5333333,-131 V 69 H 195.46667 v -200 z"
     style="fill:#000000;fill-opacity:0;stroke:none"
     inkscape:connector-curvature="0" />
  <path
     id="path10886"
     d="m 61.58394,14.29285 0.371167,0.37117 z"
     style="fill:#f7a747;stroke:none;stroke-width:0.37116781"
     inkscape:connector-curvature="0" />
  <path
     id="path10918"
     d="m 60.841604,14.66402 0.371168,0.37116 z"
     style="fill:#ffa84b;stroke:none;stroke-width:0.37116781"
     inkscape:connector-curvature="0" />
  <path
     id="path10920"
     d="m 61.212772,14.66402 0.371168,0.37116 z"
     style="fill:#feab4a;stroke:none;stroke-width:0.37116781"
     inkscape:connector-curvature="0" />
  <path
     id="path10978"
     d="m 47.479563,15.40635 -0.556752,0.54643 -0.577537,0.49492 -0.700765,0.46396 -0.577536,0.24742 -0.556753,0.10311 -0.09279,0.55675 -0.144385,0.57739 -0.0824,0.35053 -0.103184,0.37117 -0.0824,0.37117 -0.185583,0.74233 -0.103185,0.37117 -0.175192,0.74234 -0.07238,0.37116 -0.144013,0.74234 -0.07238,0.37117 -0.175191,0.74233 -0.103184,0.37117 -0.0824,0.37117 -0.185585,0.74233 -0.103184,0.37117 -0.175191,0.74234 -0.07238,0.37116 -0.144013,0.74234 -0.07238,0.37117 -0.175191,0.74233 -0.103185,0.37117 -0.0824,0.37117 -0.185585,0.74233 -0.103184,0.37117 -0.175191,0.74234 -0.07238,0.37117 -0.144013,0.74233 -0.07238,0.37117 -0.175192,0.74234 -0.103185,0.37116 -0.185583,0.74234 -0.185585,0.74233 -0.0824,0.37117 -0.103185,0.37117 -0.0824,0.37117 -0.103185,0.37117 -0.175191,0.74233 -0.07238,0.37117 -0.144013,0.74233 -0.07238,0.37117 -0.175191,0.74234 -0.103148,0.37117 -0.185584,0.74233 -0.08247,0.37117 -0.10311,0.37117 -0.175266,0.72155 -0.06187,0.37117 -0.05156,0.20636 -0.03092,0.55676 0.46396,-0.28877 0.154665,-0.19598 0.288509,-0.29879 0.288769,-0.34036 0.670329,-0.73194 0.731942,-0.74234 0.371168,-0.37117 0.360775,-0.37116 0.350754,-0.37117 0.628758,-0.74234 0.288768,-0.37117 0.628758,-0.74233 0.350754,-0.37117 0.731943,-0.74233 0.731943,-0.74234 0.350753,-0.37117 0.628759,-0.74233 0.288768,-0.37117 0.628758,-0.74234 0.350754,-0.37116 0.731942,-0.74234 0.731944,-0.74234 0.350754,-0.37116 0.628757,-0.74234 0.288769,-0.37117 0.628758,-0.74233 0.350754,-0.37117 0.731943,-0.74234 0.360775,-0.37116 0.350753,-0.37117 0.628759,-0.74234 0.288769,-0.37117 0.628758,-0.74233 0.350754,-0.37117 0.731942,-0.74233 0.731943,-0.74234 0.350753,-0.37117 0.628759,-0.74233 0.288768,-0.37117 0.628759,-0.74234 0.329968,-0.35053 0.360775,-0.37117 0.763121,-0.76297 -0.185584,-0.55675 -0.123599,-0.1959 -0.165169,-0.35053 -0.443175,-0.56707 -0.597952,-0.38149 -0.711532,-0.22682 -0.371168,-0.0825 -0.742335,-0.18558 -0.371168,-0.10311 -0.371168,-0.0825 -0.371168,-0.10311 -0.371167,-0.0825 -0.371168,-0.10311 -0.371168,-0.0825 -0.742336,-0.18559 -0.371167,-0.10311 -0.371168,-0.0825 -0.371168,-0.10311 -0.371168,-0.0825 -0.371168,-0.10311 -0.371168,-0.0825 -0.371167,-0.10311 -0.371168,-0.0825 -0.371168,-0.10311 -0.742336,-0.18558 -0.371167,-0.0825 -0.350382,-0.10311 -0.371168,-0.0928 z"
     style="fill:#000000;fill-opacity:0;stroke:none;stroke-width:0.37116781"
     inkscape:connector-curvature="0" />
  <path
     id="path11328"
     d="m 41.540879,19.4892 -0.391954,0.55675 -0.123598,0.20622 -0.484375,0.7217 -0.257961,0.37117 -0.278376,0.37116 -0.546359,0.74234 -0.515552,0.74233 -0.247457,0.37117 -0.494879,0.74234 -1.484671,2.227 -0.494878,0.74234 -0.247457,0.37117 -0.515516,0.74233 -0.546433,0.74234 -0.278375,0.37117 -0.257776,0.37116 -0.257739,0.37117 -0.494878,0.74234 -0.226822,0.35053 -0.247457,0.37117 -0.12371,0.20622 -0.391804,0.55675 0.164947,0.55675 0.08251,0.20622 0.12371,0.37117 0.123711,0.35053 0.123747,0.37117 0.24742,0.74233 0.371168,1.11351 0.123747,0.37117 0.134029,0.37116 0.134029,0.37117 0.154665,0.37117 0.298976,0.74233 0.134029,0.37117 0.257776,0.74234 0.12371,0.37117 0.247457,0.74233 0.12371,0.37117 0.12371,0.36077 0.268096,0.62913 0.195864,0.22679 0.09279,0.13399 0.433041,0.13399 0.03092,-0.55675 0.05155,-0.20637 0.06187,-0.37117 0.175266,-0.72155 0.10311,-0.37117 0.08247,-0.37116 0.09279,-0.37117 0.07219,-0.37117 0.144309,-0.74234 0.07219,-0.37116 0.175265,-0.74234 0.10311,-0.37117 0.08247,-0.37116 0.185583,-0.74234 0.103111,-0.37117 0.175266,-0.74233 0.07219,-0.37117 0.14431,-0.74234 0.07219,-0.37116 0.175266,-0.74234 0.10311,-0.37117 0.08247,-0.37117 0.185584,-0.74233 0.103147,-0.37117 0.175192,-0.74234 0.07238,-0.37116 0.144014,-0.74234 0.07238,-0.37117 0.175192,-0.74233 0.103184,-0.37117 0.0824,-0.37117 0.185584,-0.74233 0.103185,-0.37117 0.175191,-0.74234 0.07238,-0.37116 0.144013,-0.74234 0.07238,-0.37117 0.175191,-0.74233 0.103185,-0.37117 0.0824,-0.37117 0.185584,-0.74233 0.103184,-0.37117 0.07201,-0.36085 0.08277,-0.34025 -0.01039,-0.29898 0.0412,-0.1959 z"
     style="fill:#000000;fill-opacity:0;stroke:none;stroke-width:0.37116781"
     inkscape:connector-curvature="0" />
  <path
     id="path12092"
     d="m 27.80767,26.54138 -0.556752,0.46396 -0.206221,0.14435 -0.371168,0.26806 -0.35053,0.23714 -0.742335,0.51551 -0.721699,0.51552 -0.206221,0.17526 -0.556752,0.27838 v 0.76297 l -0.01031,0.7217 -0.0206,0.37117 -0.113429,0.74233 -0.07215,0.37117 v 0.74234 l 0.12371,0.37117 0.216503,0.37116 0.628944,0.74234 0.732017,0.74233 0.371167,0.36085 0.350532,0.34025 0.371167,0.29883 0.206221,0.19598 0.556751,0.28877 0.391805,-0.55676 0.12371,-0.20622 0.48456,-0.7217 0.257776,-0.37116 0.278376,-0.37117 0.268057,-0.37117 0.268058,-0.35053 0.433041,-0.57739 0.46396,-0.55675 -0.164947,-0.55675 -0.08251,-0.20622 -0.12371,-0.37117 -0.247457,-0.7217 -0.247421,-0.74234 -0.123747,-0.37116 -0.268057,-0.74234 -0.154666,-0.37117 -0.309294,-0.73201 -0.144348,-0.34025 -0.206183,-0.29898 -0.09279,-0.1959 z"
     style="fill:#000000;fill-opacity:0;stroke:none;stroke-width:0.37116781"
     inkscape:connector-curvature="0" />
  <path
     id="path13616"
     d="m 27.436502,39.90343 -0.257739,0.55675 -0.144347,0.20637 -0.237139,0.37116 -0.525833,0.72155 -0.546434,0.74234 -0.515514,0.74234 -0.247458,0.37116 -0.494878,0.74234 -1.484672,2.22701 -0.494878,0.74233 -0.247457,0.37117 -0.515515,0.74234 -0.546433,0.74233 -0.278376,0.37117 -0.257776,0.37117 -0.257739,0.37116 -0.494878,0.74234 -0.989793,1.48467 -0.494878,0.74234 -0.247457,0.37116 -0.257739,0.37117 -0.257777,0.37117 -0.278375,0.37117 -0.546434,0.74233 -0.484596,0.72155 -0.144347,0.20637 -0.257739,0.55676 0.556751,-0.18559 0.206221,-0.1236 0.371167,-0.15477 0.350532,-0.19598 0.742336,-0.37117 0.371167,-0.1648 0.742336,-0.38156 0.371168,-0.21639 0.371168,-0.20637 0.742335,-0.45357 0.371167,-0.20636 0.371169,-0.2164 0.742335,-0.38156 0.371167,-0.16479 0.371168,-0.20637 0.371168,-0.1648 0.371168,-0.20637 0.742336,-0.37117 0.371168,-0.17519 0.371168,-0.21639 0.371168,-0.20637 0.742335,-0.45357 0.371167,-0.20637 0.371169,-0.21639 0.742335,-0.38156 0.371168,-0.1648 0.371167,-0.20637 0.742336,-0.37116 0.371168,-0.1648 0.371167,-0.20637 0.371168,-0.17519 0.742336,-0.42276 0.721699,-0.44318 0.371167,-0.19597 0.206221,-0.134 0.556752,-0.19597 0.01031,-0.76312 0.0206,-0.37117 0.123748,-0.70077 0.216502,-0.76312 -2.969342,-2.96934 -0.742336,-0.74234 -0.371168,-0.37116 -0.371167,-0.36078 -0.350531,-0.34036 -0.371167,-0.29879 -0.206221,-0.19598 z"
     style="fill:#000000;fill-opacity:0;stroke:none;stroke-width:0.37116781"
     inkscape:connector-curvature="0" />
  <path
     id="path13730"
     d="m 70.491965,40.64576 0.371169,0.37117 -0.371169,-0.37117 m -64.5831951,0.37117 0.371168,0.37117 z"
     style="fill:#fe944a;stroke:none;stroke-width:0.37116781"
     inkscape:connector-curvature="0" />
  <path
     id="path14144"
     d="m 71.97664,44.72861 0.371162,0.37116 -0.371162,-0.37116 m -64.9543661,0.37116 0.371167,0.37117 z"
     style="fill:#ff924c;stroke:none;stroke-width:0.37116781"
     inkscape:connector-curvature="0" />
  <path
     id="path14198"
     d="m 9.2492799,45.84211 0.371168,0.37117 -0.371168,-0.37117 m 11.5062021,0 0.371167,0.37117 z"
     style="fill:#ff994c;stroke:none;stroke-width:0.37116781"
     inkscape:connector-curvature="0" />
  <path
     id="path14328"
     d="m 40.427375,48.06912 -0.309183,0.55675 -0.09279,0.20637 -0.453938,0.71116 -0.61844,0.63915 -0.195902,0.19597 -0.556752,0.28877 v 2.59818 0.74233 l 0.01031,0.37117 0.0206,0.37117 0.113429,0.74233 0.08247,0.37117 0.113428,0.74234 0.0206,0.37117 0.01031,0.37116 v 0.74234 2.22701 l 0.453642,-0.134 0.3607,-0.36077 0.20637,-0.28877 0.38156,-0.70114 0.164798,-0.37116 0.20637,-0.37117 0.164798,-0.37117 0.38156,-0.74233 0.216391,-0.37117 0.20637,-0.37117 0.453567,-0.74234 0.206369,-0.37116 0.216391,-0.37117 0.175191,-0.37117 0.371168,-0.74234 0.206369,-0.37116 0.164799,-0.37117 0.206369,-0.37117 0.164799,-0.37117 0.381561,-0.74233 0.21639,-0.37117 0.206369,-0.37117 0.453567,-0.74233 0.412368,-0.72155 0.165169,-0.37117 0.123599,-0.20637 0.185584,-0.55675 z"
     style="fill:#000000;fill-opacity:0;stroke:none;stroke-width:0.37116781"
     inkscape:connector-curvature="0" />
  <path
     id="path14428"
     d="m 44.881388,49.55379 0.371168,0.37117 z"
     style="fill:#fe6b49;stroke:none;stroke-width:0.37116781"
     inkscape:connector-curvature="0" />
  <path
     id="path14448"
     d="m 16.301468,59.20415 0.288694,0.26798 0.195903,0.0104 0.298975,0.0824 0.34025,0.0312 0.732018,0.1236 0.371167,0.0824 0.371168,0.0724 0.742336,0.14402 0.371168,0.0724 0.371167,0.0824 0.742335,0.1236 0.371169,0.0416 0.742335,0.12359 0.371167,0.0824 0.371168,0.0724 0.742336,0.14402 0.371168,0.0724 0.371168,0.0824 0.371168,0.0724 0.742336,0.14401 0.742335,0.15478 0.742336,0.1236 0.371167,0.0416 0.742336,0.12359 0.371167,0.0824 0.371169,0.0724 0.742335,0.14402 0.371167,0.0724 0.371168,0.0824 0.742336,0.12359 0.371168,0.0416 0.742336,0.1236 0.371168,0.0824 0.742335,0.14438 0.721698,0.15478 0.762973,0.21639 0.556752,-0.52595 0.185583,-0.13399 0.371169,-0.29879 0.742335,-0.52594 v -0.76312 -0.37117 l -0.01031,-0.72155 -0.0206,-0.37117 -0.113428,-0.74233 -0.08247,-0.37117 -0.113429,-0.74234 -0.0206,-0.37116 -0.01031,-0.74234 V 55.8639 55.12156 l -0.03092,-0.74233 -0.11343,-0.74234 -0.08247,-0.37117 -0.113429,-0.74233 -0.0206,-0.35038 -0.01031,-0.37117 v -0.76312 l -0.556751,-0.19598 -0.185584,-0.1236 -0.556752,-0.34036 -0.556752,-0.45357 -0.556751,0.10319 -0.57739,0.21639 -0.35053,0.15478 -0.742335,0.41236 -0.742336,0.45357 -0.371168,0.20637 -0.371168,0.21639 -0.371168,0.17519 -0.742335,0.37117 -0.371168,0.20637 -0.371168,0.1648 -0.742335,0.38156 -0.371168,0.21639 -0.371168,0.20637 -0.742335,0.45356 -0.371168,0.20637 -0.371168,0.2164 -0.371168,0.17519 -0.742335,0.37116 -0.371168,0.20637 -0.371168,0.1648 -0.371168,0.20637 -0.371168,0.1648 -0.742335,0.38156 -0.371168,0.21639 -0.371168,0.20637 -0.742335,0.45357 -0.371168,0.20637 -0.371167,0.21639 -0.742336,0.38156 -0.371168,0.1648 -0.742336,0.37116 -0.371168,0.20637 -0.350531,0.15441 -0.371168,0.21676 -0.206221,0.0824 z"
     style="fill:#000000;fill-opacity:0;stroke:none;stroke-width:0.37116781"
     inkscape:connector-curvature="0" />
  <path
     id="path14454"
     d="m 44.51022,49.92496 0.371168,0.37116 z"
     style="fill:#fb6b49;stroke:none;stroke-width:0.37116781"
     inkscape:connector-curvature="0" />
  <path
     id="path14456"
     d="m 46.36606,49.92496 0.371168,0.37116 z"
     style="fill:#fe6b4a;stroke:none;stroke-width:0.37116781"
     inkscape:connector-curvature="0" />
  <path
     id="path14458"
     d="m 46.737228,49.92496 0.371168,0.37116 z"
     style="fill:#ff6666;stroke:none;stroke-width:0.37116781"
     inkscape:connector-curvature="0" />
  <path
     id="path14490"
     d="m 44.139053,50.29612 0.371167,0.37117 z"
     style="fill:#ff0000;stroke:none;stroke-width:0.37116781"
     inkscape:connector-curvature="0" />
  <path
     id="path14494"
     d="m 46.36606,50.29612 0.371168,0.37117 z"
     style="fill:#fc6b49;stroke:none;stroke-width:0.37116781"
     inkscape:connector-curvature="0" />
  <path
     id="path15374"
     d="m 24.714617,62.66826 0.123711,0.12397 h 0.12371 l -0.12371,-0.12397 h -0.123711 m 7.547067,-0.1236 0.371168,0.37117 z"
     style="fill:#feab4a;stroke:none;stroke-width:0.37116781"
     inkscape:connector-curvature="0" />
  <rect
     transform="matrix(0.46918171,0.88310165,-0.56419377,0.82564241,0,0)"
     ry="0"
     y="-34.517738"
     x="47.7728"
     height="51.468853"
     width="1.8434999"
     id="rect15586"
     style="fill:#ff954a;fill-opacity:1;stroke:none;stroke-width:0.51021516;stroke-linejoin:bevel;stroke-miterlimit:4;stroke-dasharray:none;stroke-opacity:1" />
  <path
     id="path15962"
     d="m 64.31497,21.16345 8.326537,26.44544 -32.751605,-0.0101 V 46.11412 H 70.696827 L 63.181305,21.51446 Z"
     style="fill:#ff954a;fill-opacity:1;stroke:none;stroke-width:0.37116781px;stroke-linecap:butt;stroke-linejoin:miter;stroke-opacity:1"
     inkscape:connector-curvature="0" />
  <path
     id="path15983"
     d="m 16.104246,60.03797 18.744423,3.56077 V 64.6065 L 15.70114,60.97855 Z"
     style="fill:#ffab4a;fill-opacity:1;stroke:none;stroke-width:0.37116781px;stroke-linecap:butt;stroke-linejoin:miter;stroke-opacity:1"
     inkscape:connector-curvature="0" />
  <path
     id="path16002"
     d="M 14.98969,58.2378 34.271833,47.04159 34.237573,48.21544 15.58527,59.0026 Z"
     style="fill:#ff954a;fill-opacity:1;stroke:none;stroke-width:0.39747101px;stroke-linecap:butt;stroke-linejoin:miter;stroke-opacity:1"
     inkscape:connector-curvature="0" />
  <circle
     r="3.6612728"
     cy="59.366089"
     cx="12.476292"
     id="path15564-3"
     style="fill:#ffab4a;fill-opacity:1;stroke:none;stroke-width:0.33405101;stroke-linejoin:bevel;stroke-miterlimit:4;stroke-dasharray:none;stroke-opacity:1" />
  <path
     id="path16021"
     d="m 35.973362,50.29612 1.113503,11.19892 1.484671,-0.39997 -1.113504,-10.79895 h -1.113503 z"
     style="fill:#ffab4a;fill-opacity:1;stroke:none;stroke-width:0.3852956px;stroke-linecap:butt;stroke-linejoin:miter;stroke-opacity:1"
     inkscape:connector-curvature="0" />
  <circle
     r="3.392808"
     cy="64.035461"
     cx="38.107117"
     id="path15964"
     style="fill:#ff6b4a;fill-opacity:1;stroke:none;stroke-width:0.29857656;stroke-linejoin:bevel;stroke-miterlimit:4;stroke-dasharray:none;stroke-opacity:1" />
  <path
     id="path16023"
     d="M 39.632204,62.29421 61.774497,20.4902 62.816973,20.7707 40.673081,63.05601 Z"
     style="fill:#ff6b4a;fill-opacity:1;stroke:none;stroke-width:0.37082368px;stroke-linecap:butt;stroke-linejoin:miter;stroke-opacity:1"
     inkscape:connector-curvature="0" />
  <circle
     r="3.6612728"
     cy="18.096436"
     cx="62.76852"
     id="path15564"
     style="fill:#ffab4a;fill-opacity:1;stroke:none;stroke-width:0.33405101;stroke-linejoin:bevel;stroke-miterlimit:4;stroke-dasharray:none;stroke-opacity:1" />
  <path
     id="path16054"
     d="M 11.341195,55.87056 6.2799379,39.16109 17.342817,30.9954 18.085152,32.1089 7.6202989,39.71784 12.481351,55.87056 Z"
     style="fill:#ff924a;fill-opacity:1;stroke:none;stroke-width:0.37116781px;stroke-linecap:butt;stroke-linejoin:miter;stroke-opacity:1"
     inkscape:connector-curvature="0" />
  <circle
     r="3.392808"
     cy="30.656616"
     cx="19.964518"
     id="path15964-3"
     style="fill:#ff6b4a;fill-opacity:1;stroke:none;stroke-width:0.29857656;stroke-linejoin:bevel;stroke-miterlimit:4;stroke-dasharray:none;stroke-opacity:1" />
  <circle
     r="3.6612728"
     cy="13.079224"
     cx="43.242699"
     id="path15564-6"
     style="fill:#ff4a4a;fill-opacity:1;stroke:none;stroke-width:0.33405101;stroke-linejoin:bevel;stroke-miterlimit:4;stroke-dasharray:none;stroke-opacity:1" />
  <path
     id="path2474"
     d="m 41.557763,15.48776 -4.769465,29.3891 1.459203,-0.21601 4.506247,-29.34395 z"
     style="fill:#ff4a4a;fill-opacity:1;stroke:none;stroke-width:0.37116781px;stroke-linecap:butt;stroke-linejoin:miter;stroke-opacity:1"
     inkscape:connector-curvature="0" />
  <circle
     r="3.6276805"
     cy="47.306519"
     cx="36.830612"
     id="path15564-3-6"
     style="fill:#ff954a;fill-opacity:1;stroke:none;stroke-width:0.33098608;stroke-linejoin:bevel;stroke-miterlimit:4;stroke-dasharray:none;stroke-opacity:1" />
  <path
     id="path2474-7"
     d="m 45.994892,3.52898 -4.000617,9.17043 1.630061,0.6958 3.651968,-8.81345 z"
     style="fill:#ff4a4a;fill-opacity:1;stroke:none;stroke-width:0.21585126px;stroke-linecap:butt;stroke-linejoin:miter;stroke-opacity:1"
     inkscape:connector-curvature="0" />
  <path
     id="path16021-5"
     d="m 45.523932,3.97565 8.489239,7.97841 5.725719,5.38119 0.959517,-1.5796 L 46.949736,3.12969 45.994892,3.52898 Z"
     style="fill:#ffab4a;fill-opacity:1;stroke:none;stroke-width:0.67191684px;stroke-linecap:butt;stroke-linejoin:miter;stroke-opacity:1"
     inkscape:connector-curvature="0" />
  <path
     id="path2508"
     d="M 20.991144,6.13259 44.162128,4.76509 46.325091,4.70599 46.949736,3.12928 20.464874,4.70501 Z"
     style="fill:#ff4a4a;fill-opacity:1;stroke:none;stroke-width:0.37116781px;stroke-linecap:butt;stroke-linejoin:miter;stroke-opacity:1"
     inkscape:connector-curvature="0" />
  <text
     id="text2514"
     y="42.793583"
     x="24.472725"
     style="font-style:normal;font-variant:normal;font-weight:normal;font-stretch:normal;font-size:24px;line-height:0.95;font-family:'Noto Sans Mende Kikakui';-inkscape-font-specification:'Noto Sans Mende Kikakui';letter-spacing:0px;word-spacing:0px;fill:#000000;fill-opacity:1;stroke:none;stroke-width:0.647;stroke-dasharray:none"
     xml:space="preserve"><tspan
       style="font-style:normal;font-variant:normal;font-weight:normal;font-stretch:normal;font-size:24px;line-height:0.95;font-family:'Noto Sans Mende Kikakui';-inkscape-font-specification:'Noto Sans Mende Kikakui';font-variant-ligatures:normal;font-variant-caps:normal;font-variant-numeric:normal;font-feature-settings:normal;text-align:start;letter-spacing:1px;writing-mode:lr-tb;text-anchor:start;fill:#000000;fill-opacity:1;stroke-width:0.647;stroke-dasharray:none"
       y="42.793583"
       x="24.472725"
       id="tspan2512">GADGETVALA</tspan></text>
</svg>
