<?xml version="1.0" encoding="iso-8859-1"?>
<!-- Generator: Adobe Illustrator 16.0.0, SVG Export Plug-In . SVG Version: 6.00 Build 0)  -->
<!DOCTYPE svg PUBLIC "-//W3C//DTD SVG 1.1//EN" "http://www.w3.org/Graphics/SVG/1.1/DTD/svg11.dtd">
<svg version="1.1" id="Capa_1" xmlns="http://www.w3.org/2000/svg" xmlns:xlink="http://www.w3.org/1999/xlink" x="0px" y="0px"
	 width="543.185px" height="543.185px" viewBox="0 0 543.185 543.185" style="enable-background:new 0 0 543.185 543.185;"
	 xml:space="preserve">
<g>
	<path d="M534.644,1.79H143.907c-4.72,0-8.54,3.828-8.54,8.544v34.132H72.005c-2.458,0-4.807,1.064-6.427,2.919
		c-1.62,1.861-2.353,4.32-2.036,6.763l3.319,24.521H8.541c-2.679,0-5.22,1.264-6.835,3.411c-1.613,2.146-2.117,4.925-1.362,7.519
		l129.987,445.633c1.086,3.738,4.492,6.162,8.209,6.162c0.79,0,396.1,0,396.1,0c4.715,0,8.545-3.81,8.545-8.548V10.339
		C543.185,5.618,539.354,1.79,534.644,1.79z M135.368,61.555v395.79L81.794,61.555H135.368L135.368,61.555z M69.17,95.752
		l42.646,314.995L19.928,95.752H69.17z M526.101,524.306H152.447V18.881h373.662v505.425H526.101z M301.902,86.356H166.079V47.911
		h135.818L301.902,86.356L301.902,86.356z M513.32,86.356H377.499V47.911h135.816L513.32,86.356L513.32,86.356z M310.669,67.136
		c0-15.796,12.81-28.616,28.604-28.616c15.802,0,28.622,12.815,28.622,28.616c0,15.805-12.826,28.616-28.622,28.616
		C323.474,95.752,310.669,82.937,310.669,67.136z M493.182,275.439H377.499V145.588h115.679L493.182,275.439L493.182,275.439z
		 M322.188,164.672H179.965v-14.243h142.223V164.672z M179.965,205.096h142.223v14.244H179.965V205.096z M181.566,261.006h142.225
		v14.242H181.566V261.006z M179.965,317.327h313.217v14.237H179.965V317.327z M179.965,373.558h313.217v14.237H179.965V373.558z
		 M179.965,429.078h313.217v14.247H179.965V429.078z"/>
</g>
<g>
</g>
<g>
</g>
<g>
</g>
<g>
</g>
<g>
</g>
<g>
</g>
<g>
</g>
<g>
</g>
<g>
</g>
<g>
</g>
<g>
</g>
<g>
</g>
<g>
</g>
<g>
</g>
<g>
</g>
</svg>
