<?xml version="1.0" encoding="UTF-8"?>
<!DOCTYPE svg  PUBLIC '-//W3C//DTD SVG 1.1//EN'  'http://www.w3.org/Graphics/SVG/1.1/DTD/svg11.dtd'>
<svg enable-background="new 0 0 39.35 22.15" version="1.1" viewBox="0 0 39.35 22.15" xml:space="preserve" xmlns="http://www.w3.org/2000/svg" xmlns:xlink="http://www.w3.org/1999/xlink">
<symbol id="c" viewBox="0 -7.439 24.894 7.427">
		<path d="m24.55-1.95c0.567-0.367 0.434-0.983-0.4-1.85-0.9-0.9-2.2-1.5-3.9-1.8-2.567-0.6-4.583-1.05-6.05-1.35-2.667-0.5-5.1-0.617-7.3-0.35-2.233 0.3-4.05 0.75-5.45 1.35-0.7 0.3-1.183 0.583-1.45 0.85l9.55 4.15c2.733 1 5.9 1.2 9.5 0.6 2.667-0.433 4.5-0.967 5.5-1.6z" clip-rule="evenodd" fill-rule="evenodd"/>
</symbol>
<symbol id="d" viewBox="0 -11.409 25.457 11.408">
		<path d="m7.35-0.05c6.566 0.3 11.633-0.784 15.2-3.25 1.333-0.9 2.217-1.85 2.65-2.85 0.4-0.9 0.333-1.533-0.2-1.9-1.2-0.8-2.6-1.434-4.2-1.9-2.167-0.633-4.983-1.1-8.45-1.4-3.2-0.267-6.217 0.367-9.05 1.9-1.4 0.767-2.5 1.567-3.3 2.4l7.35 7z" clip-rule="evenodd" fill-rule="evenodd"/>
</symbol>
		<use transform="matrix(1 0 0 -1 0 7.9502)" y="-11.409" width="25.457" height="11.408" enable-background="new" opacity=".3008" xlink:href="#d"/>
	<path d="m18.9 5.2l2.45 10.1-10.35 3.7-11-4c0.133-2.233 0.566-4.233 1.3-6l1.05-2c0.933-1.233 2-2.45 3.2-3.65 2.4-2.367 4.217-3.483 5.45-3.35 1.267 0.133 2.967 1.033 5.1 2.7 1.067 0.866 2 1.7 2.8 2.5z" clip-rule="evenodd" fill="#94897B" fill-rule="evenodd"/>
	<path d="m0.55 11.4h0.05c1.233 0.5 2.333 0.767 3.3 0.8 1.1 0.033 2.2-0.2 3.3-0.7 0.866-0.333 2.083-0.5 3.65-0.5 1.633 0.033 2.833-0.083 3.6-0.35 1-0.333 1.883-1.05 2.65-2.15 0.733-1.066 1.25-2.25 1.55-3.55l0.25 0.25 2.45 10.1-10.35 3.7-11-4c0.1-1.3 0.283-2.5 0.55-3.6z" clip-rule="evenodd" fill="#787066" fill-rule="evenodd"/>
	<path d="m8.1 11.6l-0.05-0.25c0.5 0.267 0.967 0.75 1.4 1.45 0.7 1.033 1.116 1.634 1.25 1.8 1.2 1.4 2.833 1.684 4.9 0.851 1.167-0.434 2-1.2 2.5-2.3 0.9-0.733 1.583-1.684 2.05-2.851l1.199 5-10.349 3.7-11-4 0.1-1.2c1.867 1.5 4.066 2.283 6.6 2.351 0.333 0 0.633-0.101 0.9-0.301 0.267-0.232 0.433-0.5 0.5-0.8 0.334-1.167 0.334-2.317 0-3.45z" clip-rule="evenodd" fill="#635C55" fill-rule="evenodd"/>
		<use transform="matrix(1 0 0 -1 14.45 14.7)" y="-7.439" width="24.894" height="7.427" enable-background="new" opacity=".3008" xlink:href="#c"/>
	<path d="m27.85 9l3.2 2.5c2.2 1.8 3.483 3.066 3.851 3.8 1.033 2.134 0.283 3.7-2.25 4.7-1.434 0.6-2.851 1.017-4.25 1.25-1.567 0.267-3.483 0.383-5.75 0.35-1.867-0.033-3.483-0.283-4.851-0.75-1.866-0.633-2.983-0.982-3.35-1.05-1.134-0.2-0.983-1 0.45-2.399 2.167-1.834 3.684-3.283 4.55-4.351 1.2-1.4 2.267-2.3 3.2-2.7 0.133-0.034 1.867-0.483 5.2-1.35z" clip-rule="evenodd" fill="#94897B" fill-rule="evenodd"/>
	<path d="m34.9 15.3c1.033 2.134 0.283 3.7-2.25 4.7-1.434 0.6-2.851 1.017-4.25 1.25-1.567 0.267-3.483 0.383-5.75 0.35-1.867-0.033-3.483-0.283-4.851-0.75-1.866-0.633-2.983-0.982-3.35-1.05-0.767-0.133-1-0.483-0.7-1.05 0.233-0.434 0.85-1.1 1.85-2 1.633 0.833 3.534 1.417 5.7 1.75 2.134 0.333 4.033 0.316 5.7-0.05 0.833-0.2 1.684-1.017 2.55-2.45 0.434-0.767 0.667-1.167 0.7-1.2 0.3-0.399 0.667-0.633 1.1-0.7 0.768-0.133 1.351-0.366 1.75-0.699l0.051-0.101c0.933 0.9 1.517 1.567 1.75 2z" clip-rule="evenodd" fill="#787066" fill-rule="evenodd"/>
	<path d="m32.5 15.55c0.934 0.934 1.8 1.733 2.6 2.4-0.4 0.9-1.216 1.583-2.45 2.05-1.434 0.6-2.851 1.017-4.25 1.25-1.567 0.267-3.483 0.383-5.75 0.35-1.867-0.033-3.483-0.283-4.851-0.75-1.866-0.633-2.983-0.982-3.35-1.05-0.6-0.1-0.867-0.35-0.8-0.75 0.067-0.3 0.383-0.75 0.95-1.35 1.133 1.467 2.783 2.5 4.95 3.1 1.967 0.533 3.917 0.634 5.851 0.3 1.633-0.267 3.05-0.982 4.25-2.149 1.234-1.501 2.183-2.635 2.85-3.401z" clip-rule="evenodd" fill="#635C55" fill-rule="evenodd"/>
</svg>
