<svg xmlns="http://www.w3.org/2000/svg" width="859.79" height="448.385" viewBox="0 0 859.79 448.385"><defs><style>.a{fill:#fff;}.b{fill:#b06d2d;}.c,.d,.g,.j{fill-rule:evenodd;}.d{fill:#5d92ff;}.e,.h,.i{fill:none;stroke:#000;}.e{stroke-linecap:round;stroke-linejoin:round;stroke-width:24px;}.f{fill:#030104;}.g{fill:#ff8e56;}.i{stroke-width:1.5px;}.j{fill:#2550aa;}</style></defs><g transform="translate(-279.164 -106)"><g transform="translate(224.864 16.969)"><path class="a" d="M54.3,372.234v-58.78L182.039,112.1H234.3v79.822h-30.29L129.218,310.413v2.421h185.03v59.4ZM204.943,424V354.3l1.552-25.759V112.162h70.449v311.9h-72Z" transform="translate(0 -2.579)"/><path class="a" d="M664.173,429.056q-40.78,0-70.387-19.428-29.514-19.459-45.559-55.863Q532.212,317.268,532.4,266q.186-51.3,16.076-87.208,15.921-35.845,45.373-54.683Q623.362,105.3,664.111,105.3q40.78,0,70.449,18.807,29.607,18.807,45.621,54.745t15.828,87.084q0,51.487-16.014,88.015-16.014,36.59-45.435,55.8Q705.139,429.118,664.173,429.056Zm0-61.7q24.393,0,39.414-24.89,15.083-24.859,14.9-76.532,0-33.8-6.828-55.8C707.063,195.487,700.732,184.5,692.6,177.3a41.628,41.628,0,0,0-28.49-10.8q-24.207,0-39.166,24.455-14.9,24.486-15.083,74.98-.186,34.262,6.641,56.794c4.531,15.021,10.862,26.193,19.117,33.58A41.7,41.7,0,0,0,664.173,367.358Z" transform="translate(-181.343)"/><path class="a" d="M1020.7,372.234v-58.78L1148.439,112.1H1200.7v79.822h-30.29l-74.794,118.491v2.421h185.03v59.4ZM1171.343,424V354.3l1.552-25.759V112.162h70.511v311.9h-72.063Z" transform="translate(-366.558 -2.579)"/></g><g transform="translate(342.491 24.957)"><ellipse class="b" cx="7.037" cy="6.742" rx="7.037" ry="6.742" transform="translate(310.509 245.508)"/><ellipse class="b" cx="16.597" cy="16.451" rx="16.597" ry="16.451" transform="translate(356.867 149.594) rotate(-17)"/><path class="c" d="M359.108,132.577q7.3-2.451,12.3,6.337,0-4.623,5.737-4.625t10.014,9.876q4.59-2.337,6.859,1.7c2.27,4.036,4.215,11-1.556,21.761l-4.314-4.763a5.581,5.581,0,0,0-5.746-9.149,5.649,5.649,0,0,0-3.9,4.295c-.09.122-.181.247-.268.378l-2.114.646q-5.131-9.217-13.765-5.259c-4.619-7.087-9.074-19.242-3.249-21.2Z"/><path class="c" d="M534.5,369.866l22.458,14.092,7.348-1.447L550.44,349.839a6.479,6.479,0,0,1-4.914-11.577l-2.915-6.868-20.707,8.79ZM433.836,481.479H401.592l-21.748,15.168-1.539,7.329H413.8a6.479,6.479,0,0,1,12.576,0h7.461v-22.5Z"/><path class="d" d="M483.461,355.377l28.861-11.928,14.539,35.334v0a1.384,1.384,0,0,1-.755,1.8L457.86,408.474l-34.367-89.646a1.381,1.381,0,0,0-2.667.6l11.9,152.891H390.047L378.3,258.991H447.2Z"/><path class="c" d="M423.954,198.31,447.2,258.991h-68.89l-7.82-56.65a20.653,20.653,0,0,1,21.557-23.453l5.623.3A29.841,29.841,0,0,1,423.954,198.31Z"/><path class="e" d="M350.507,259.708Q388.58,255.871,392.2,244.2q4.389-14.175,10.314-42.769"/></g><g transform="translate(851.107 524.665)"><path class="f" d="M41.8,4.8c1,.1,1.9.2,1.6.6-1,1.2-1.3,3.1-.4,4.2.4.4-.3.6-2.1.8a145.417,145.417,0,0,1-16.7.9C8.9,10.9,4.7,9.2,4.9,7.9,5.2,6.5,12.8,3.1,41.8,4.8ZM51,10.2s2.7.2,7,.4c7.2.2,12.2-.2,13.2-2.2.9-1.6-3.6-2.7-10.8-2.9-4.3-.1-7.1-.1-7.1-.1Z"/><path class="f" d="M68.1,26.2c-.3-1.3,4-3.1,19.4-3.4a146.8,146.8,0,0,1,16.7.9c1.8.2,2.4.3,2.1.8-1,1.1-.7,3,.4,4.2.3.3-.6.5-1.6.6C76,30.9,68.4,27.5,68.1,26.2Zm48.3,2.4s2.8,0,7.1-.1c7.2-.2,11.6-1.3,10.8-2.9-1-1.9-6-2.4-13.2-2.2-4.3.1-7,.4-7,.4Z"/></g><g transform="translate(954.107 504.665)"><path class="f" d="M41.8,4.8c1,.1,1.9.2,1.6.6-1,1.2-1.3,3.1-.4,4.2.4.4-.3.6-2.1.8a145.417,145.417,0,0,1-16.7.9C8.9,10.9,4.7,9.2,4.9,7.9,5.2,6.5,12.8,3.1,41.8,4.8ZM51,10.2s2.7.2,7,.4c7.2.2,12.2-.2,13.2-2.2.9-1.6-3.6-2.7-10.8-2.9-4.3-.1-7.1-.1-7.1-.1Z"/><path class="f" d="M68.1,26.2c-.3-1.3,4-3.1,19.4-3.4a146.8,146.8,0,0,1,16.7.9c1.8.2,2.4.3,2.1.8-1,1.1-.7,3,.4,4.2.3.3-.6.5-1.6.6C76,30.9,68.4,27.5,68.1,26.2Zm48.3,2.4s2.8,0,7.1-.1c7.2-.2,11.6-1.3,10.8-2.9-1-1.9-6-2.4-13.2-2.2-4.3.1-7,.4-7,.4Z"/></g><g transform="translate(519 529)"><path class="f" d="M34.407,4.8c-1,.1-1.9.2-1.6.6,1,1.2,1.3,3.1.4,4.2-.4.4.3.6,2.1.8a145.417,145.417,0,0,0,16.7.9c15.3-.4,19.5-2.1,19.3-3.4C71.007,6.5,63.407,3.1,34.407,4.8Zm-9.2,5.4s-2.7.2-7,.4c-7.2.2-12.2-.2-13.2-2.2-.9-1.6,3.6-2.7,10.8-2.9,4.3-.1,7.1-.1,7.1-.1Z" transform="translate(58.186 -4.335)"/><path class="f" d="M134.379,26.2c.3-1.3-4-3.1-19.4-3.4a146.8,146.8,0,0,0-16.7.9c-1.8.2-2.4.3-2.1.8,1,1.1.7,3-.4,4.2-.3.3.6.5,1.6.6C126.479,30.9,134.079,27.5,134.379,26.2Zm-48.3,2.4s-2.8,0-7.1-.1c-7.2-.2-11.6-1.3-10.8-2.9,1-1.9,6-2.4,13.2-2.2,4.3.1,7,.4,7,.4Z" transform="translate(-68.086 -4.335)"/></g><g transform="translate(431 509)"><path class="f" d="M34.407,4.8c-1,.1-1.9.2-1.6.6,1,1.2,1.3,3.1.4,4.2-.4.4.3.6,2.1.8a145.417,145.417,0,0,0,16.7.9c15.3-.4,19.5-2.1,19.3-3.4C71.007,6.5,63.407,3.1,34.407,4.8Zm-9.2,5.4s-2.7.2-7,.4c-7.2.2-12.2-.2-13.2-2.2-.9-1.6,3.6-2.7,10.8-2.9,4.3-.1,7.1-.1,7.1-.1Z" transform="translate(58.186 -4.335)"/><path class="f" d="M134.379,26.2c.3-1.3-4-3.1-19.4-3.4a146.8,146.8,0,0,0-16.7.9c-1.8.2-2.4.3-2.1.8,1,1.1.7,3-.4,4.2-.3.3.6.5,1.6.6C126.479,30.9,134.079,27.5,134.379,26.2Zm-48.3,2.4s-2.8,0-7.1-.1c-7.2-.2-11.6-1.3-10.8-2.9,1-1.9,6-2.4,13.2-2.2,4.3.1,7,.4,7,.4Z" transform="translate(-68.086 -4.335)"/></g><g transform="translate(21 44)"><g transform="translate(519 146)"><path class="g" d="M30.7,52.011A41.529,41.529,0,0,0,105.736,16.4Z" transform="translate(-30.7 -16.4)"/><path class="h" d="M64,17.5c3.051,1.173-3.109,11.558,1.115,13.2,4.224,1.584,11.558-8.389,15.782-6.747,4.224,1.584-3.109,11.558,1.115,13.2S93.571,28.764,97.8,30.407s-3.109,11.558,1.115,13.2c4.224,1.584,11.558-8.389,15.782-6.747,4.224,1.584-3.109,11.558,1.115,13.2,4.224,1.584,11.851-8.272,15.782-6.747" transform="translate(-44.29 -16.855)"/></g></g><path class="i" d="M11.2,40.2c0-4.3,1.8-11.8,6.8-6.6,7.8,8.2,3.6,28,12.9,28S47,5.6,58.7,5.6s-.1,56,9.2,56S84.5,32,93.8,32s1.9,29.6,11.1,29.6c9.3,0,16.6-19.6,25.9-19.6s1.9,19.6,11.1,19.6c9.3,0,21-21.7,27.3-26.3,4.3-3,6.6-1.3,7,5.3" transform="translate(594.3 364.9)"/><path class="j" d="M32.6,36,7.2,29.2,14,3.8Z" transform="translate(602.8 102.2)"/></g></svg>